<svg xmlns="http://www.w3.org/2000/svg" width="490.705" height="383.18" viewBox="0 0 490.705 383.18">
  <g id="Character_unboxing" data-name="Character/unboxing" transform="translate(-95 -59)">
    <path id="Accent" d="M303.253,377.469q4.19,31.426,8.38,62.852l2.256,16.918c.285,2.135.016,6.346,1.1,8.257.383.674,1.39.994,2.131,1.392l7.647,4.106,64.684,34.728,62.078,33.328c2.141,1.15,5.6,4.15,7.917,3.359,2.2-.751,4.443-2.6,6.438-3.773l11.488-6.733,69.516-40.74,28.681-16.808,7.848-4.6c1.368-.8,1.546-.773,2.084-2.134,2.013-5.088,2.946-10.916,4.37-16.194l4.71-17.452c.7-2.6.371-2.931-.771-5.437l-6.778-14.878q-7.522-16.511-15.044-33.022c-2.028-4.451-6.912-7.583-10.429-10.857l-54.6-50.834-4.16-3.874c-.228,7.76-1.762,16.1.487,23.6q5.537,18.454,11.073,36.909l5.352,17.84c.331,1.1,2.349,5.486,1.81,6.458-.3.539-2.848,1.084-3.4,1.293l-7.115,2.707-19.824,7.542-17.83,6.783c-2.015.767-4.382,2.187-6.511,2.068-1.9-.106-4.069-1.048-5.912-1.523l-9.718-2.5-19.09-4.917c-7.159-1.844-13.2-7.26-19.327-11.269l-31.57-20.671c-2.409-1.578-2.418-2.478-3.378-5.358l-6.473-19.418c-1.152-3.456-2.569-6.926-3.439-10.465-1.435-5.839-2.286-11.884-3.423-17.788l-1.028-5.344-13.222,5.366c-.639.259-3.751,1.032-4.028,1.667-.175.4.751,2.223.883,2.615q5.481,16.235,10.963,32.468l3.448,10.213-8.241-12.95q-3.237,10.889-6.475,21.779l-15.3-17.659-5.3,17.659L309.728,360.4q-.979,5.683-1.96,11.365c-.2,1.144-.158,4.424-.919,5.329-.627.745-2.432.376-3.6.376" transform="translate(-85.669 -105.341)" fill="#6a4b23" fill-rule="evenodd"/>
    <g id="Ink" transform="translate(95 59)">
      <path id="ink-shape" d="M470.427,259.595c-.309,9.862-.095,22.664-5.492,31.335-.871,1.4-3.822,5.759-4.152,1.924-.323-3.765.6-7.493-.314-11.3-.491-2.038-2.142-6.489-4.965-4.648-1.438.938-1.817,3.255-2.38,4.717-.832,2.163-1.765,4.292-2.641,6.439-3.061,7.494-6.232,16.437-13.036,21.4.891-6.462,3.318-13.362,1.686-19.894-.556-2.226-2.24-6.291-5.141-4.987-2.827,1.271-4.658,6.942-5.992,9.467-4.044,7.656-8.181,15.168-12.734,22.539a62.417,62.417,0,0,1-7.76,10.266c-1.874,1.984-4.21,5.336-7.163,5.631,0-5.653,1.86-11.114,3.558-16.437,1.827-5.724,3.492-11.5,5.285-17.231a149.86,149.86,0,0,0,3.867-15.012c.429-2.11.768-4.294,2.566-5.657,1.616-1.224,4.17-1.807,5.972-2.707a129.151,129.151,0,0,0,14-7.855c1.805-1.207,3.359-2.765,5.249-3.848a55.4,55.4,0,0,0,6.157-3.774c8.6-6.485,16.348-14.462,21.57-23.958.848,3.815,1.971,7.543,2.1,11.475.126,4.032-.107,8.09-.233,12.119m-70.759,45.33c-1.375-2.322-3.47-1.371-5.316-.251q-4.3,2.606-8.615,5.177c-5.859,3.491-11.609,7.164-17.333,10.87-11.652,7.542-23.71,13.715-35.994,20.1-11.873,6.169-23.276,13.511-34.4,20.933-2.674,1.784-5.328,3.609-7.9,5.543-2.279,1.717-4.1,4.128-6.5,5.657-2.5,1.592-4.215.3-6.6-.874-2.988-1.468-6.1-2.7-9.156-4.022-12.325-5.344-24.686-10.89-36.676-16.956-11.917-6.028-23.209-12.973-34.628-19.872-5.438-3.285-10.784-6.779-16.148-10.184-5.709-3.624-11.619-6.339-17.607-9.42-2.649-1.364-5-3.215-7.718-4.455-2.861-1.3-5.883-2.237-8.445-4.117a20.033,20.033,0,0,0-3.43-2.446c-1.078-.489-2.3-.572-3.365-1.091-2.165-1.057-2.785-3.2-3.2-5.434-2.7-14.325-4.13-29.048-5.693-43.533-.878-8.145-1.858-16.259-3.072-24.362-.547-3.653.553-6.483,1.131-10.037.675-4.15.941-8.388,1.393-12.567,2.133,3.952,3.978,8.1,6.692,11.706,2,2.658,5.418,6.427,9.1,6.338,5.726-.138,5.464-9.96,5.7-13.858,2.608,2.328,3.4,6.121,5.564,8.825,1.977,2.469,4.667,5.532,7.7,6.637,6.391,2.328,5.776-9.536,5.425-12.9-.177-1.688-1.13-4.358,1.131-3.588,2.082.709,4.108,3.647,5.858,4.994,3.025,2.33,6.343,4.266,9.446,6.49,3.85,2.76,8,4.754,11.93,7.324,2.455,1.608,5.133,1.968,7.81,3.15,3.921,1.732,7.386,4.314,11.118,6.391a125.538,125.538,0,0,0,23.676,10.275c2.616.8,6.1,3.062,8.086.739,1.222-1.429,2.025-3.612,3.062-5.215,1.312-2.028,2.705-4,4.152-5.938a137.649,137.649,0,0,1,17.19-19.168A142.855,142.855,0,0,1,298.1,197.91c3.706-2.173,19.181-11.91,22.583-5.057-2.8-.174-5.218.848-7.609,2.128-.583.313-3.592,2.461-2.888.567-.874.164-1.641,1.3-2.3,1.81a36.577,36.577,0,0,1-4.2,2.612c-1.309.716-2.927.892-4.12,1.761-.436.317-.7.832-1.115,1.175l-1.191.009-.535,1.979c-.673-2.159-1.634.649-2.759,1.56a12.631,12.631,0,0,1-2.544,1.466c-.6.264-.687-.35-1.265.117-.513.415-.841,1.329-1.393,1.849a22.348,22.348,0,0,1-2.3,1.676c-1.447,1.042-2.977,1.86-4.443,2.848-1.972,1.329-3.006,3.615-4.92,5-.907.658-2.316.735-2.807,1.157-1.231,1.058-.825,2.662-3.121,2.732a2.553,2.553,0,0,1,.377,1.088,3.014,3.014,0,0,1-1.459-.68c.1,2.29-2.156,3.107-3.506,4.517a16.409,16.409,0,0,0-2.3,2.933c-.091.164-.266,1.469-.3,1.486-.208.1-1.477-1.014-1.357-.921-.354,2.116-2.4,4.116-3.3,6.074-.472,1.032-.952,2.691-1.882,3.416-.253.2-1.032-.009-1.675.677a6.082,6.082,0,0,0-1.208,2.1c-.128.446.026,1.6-.158,1.865-.337.489-.861,0-1.388.359-.975.667-1,1.711-2.426,1.848.983,2.389,6.919,3.125,9.076,3.8,6.1,1.92,12.5,3.838,18.205,6.779,1.475.76,2.871,1.387,3.132,3.14.364,2.438-.878,5.68-1.115,8.143a174.989,174.989,0,0,0-.639,20.177c.127,6.327.332,12.713.627,19.032.273,5.859,1.454,11.6,2.092,17.419.175,1.6.058,8.8,2.8,8.434,2.292-.3.845-5.221.8-6.63-.1-3.12.561-6.306.533-9.454-.013-1.513.649-2.817.712-4.265.063-1.431-.648-2.562-.435-4.045.2-1.423,4.412-9.61.371-8.651.237-1.17.444-2.35.756-3.5a4.632,4.632,0,0,1,1.043,1.36c.36-2.515.24-5.025.463-7.54a16.485,16.485,0,0,0,.4-3.538,3.7,3.7,0,0,0-.181-1.4,1.287,1.287,0,0,0-.922-.415,1.366,1.366,0,0,1,.1-1.42,1.153,1.153,0,0,1,.872-.783q1.243-.147.284-1.429a11.525,11.525,0,0,0,.136-4.432c-.2-1.413.542-4.15-.217-5.408-.886-1.471-1.326-.044-1.491-2.083a5.014,5.014,0,0,1,.11-1.761c.19-.469.762-.277.835-.443.5-1.133.529-3.364-1.227-3.17q.1-1.214.206-2.428c1.268,1.46.825.224,1.545-.587.969-1.094,1.917-1.282,3.3-1.715,3.691-1.151,7.248-2.884,10.855-4.289,7.638-2.977,15.418-5.634,22.832-9.152,15.595-7.4,30.88-15.43,46.57-22.635-1.121-2.08-.424-2.181.4-4.135,1.094.759.864.23,1.642.183q-.106-.977.607-.59a3.048,3.048,0,0,0,1.164.123c.971.167,1.765.7,2.648.9a3.187,3.187,0,0,0,.955.482,1.528,1.528,0,0,0,.8-.463c1.429.265,1.911,1.342,1.974,2.9.011.271-.819.549-.582.914.415.637,1.532.485,2.171.566q-.21.992-.42,1.984c2.8-1.294,2.073,2.757,2.924,4.088.237.371.765.075,1.04.505.358.562.25,1.357.556,1.916.69,1.265,1.382,1.111,2.07,2.56,3.6,7.563,8.38,14.61,11.831,22.336,1.643,3.677,3.126,7.417,4.842,11.062,1.579,3.355,2.481,6.206,1.356,9.87-2.61,8.5-5.4,17.151-8.822,25.359l-.513-.814m-182.06,63.432-.735,1.251c-.544-3.129.905-1.678.735-1.251M206.1,362.5c-.785-.235-.446-1.516-.42-2.064a18.4,18.4,0,0,1,1.4,1.928l-.976.136m-31.552-12.027,2.351-1.318c-.949,1.851-.949,1.851-2.351,1.318M124.9,187.458c-1.259,3.09,2.58,22.171-.994,22.794-.513-1.675-.577-6.286-2.7-6.836-2.633-.683-2.373,4.064-2.733,5.532-5.405-3.761-7.806-11.023-10.389-16.779a221.723,221.723,0,0,1-8.355-22.611c-2.115-6.536-3.864-13.187-6-19.711a122.63,122.63,0,0,1-3.693-12.43c-.2-.918-.968-3.245-.312-4.117.953-1.268,4.384.184,5.489.517,7.171,2.158,14.61,3.087,21.978,4.341,8.186,1.392,16.354,2.831,24.589,3.911q3.087.4,6.177.773c1.336.161,3.359,0,4.628.6,2.569,1.212,3.116,5.85,4.07,8.257,3.559,8.978,7.749,17.672,11.5,26.568,3.376,8.014,5.936,16.541,10.789,23.838-3.619-1.6-8.207-10.088-12.251-5.2-1.739,2.1-1.3,4.873-1.161,7.389.2,3.638.264,7.3.264,10.946-3.958-1.028-6.617-5.521-8.7-8.7a42.353,42.353,0,0,1-5.883-13.427c-.544-2.158-1.988-2.211-3.27-3.5-.824-.83-1.238-1.948-2.42-.741-1.486,1.518-.5,5.72-.241,7.512.609,4.263,2.608,10.825.665,14.831-2.622,5.407-9.647-8.2-10.47-10.162-.419-1-7.893-20.181-10.578-13.589M120,94.8l1.327.2c-.357.315-1.1,1.419-1.705,1.127L120,94.8m23.445-5.031-.417.457c-.635-.793-.41-1.95-.41-2.868a2.138,2.138,0,0,1,.826,2.411m1.895,8.8v2.594c-1.758-.762-1.792-1.155,0-2.594m2.134,3.3c-1.231-.338-1.379-.61-1.206-2.5.51,1.06.846,1.759,1.206,2.5m7.088,19.207c-.516,1.328-3.533-1.837-3.422-2.784.105-.9.569-1.173,1.208-.592.211.192-.1.888.032,1.129a10.516,10.516,0,0,0,2.182,2.247m.034,8c-.756,1.887-2.1-1.085-.128-1.166a2.66,2.66,0,0,1,.128,1.166m-1.466-2.976q-.439-.585-.853-1.188c1.017.205,1.825,1.688,2.9.7-.127,1.508-1.2,1.55-2.045.49M87.35,101.591c-1.636-1.785,9.031-3.039,10.318-3.345a148.069,148.069,0,0,0,26.886-9.4c4.165-1.886,8.309-3.795,12.377-5.886,1.756-.9,4.164-1.668,5.631-3.023,1.047-.967,1.005-1.7,2.366-2.275,1.155-.488,1.213-.027,1.742-.91a6.382,6.382,0,0,0,.492-3.046c-.507-1.568-1.256-.3-2.308-1.377-.758-.779-.574-2.993-.367-3.91a3.165,3.165,0,0,1,.464,1.422c1.141-.563.681-2.5,1.93-2.812,1.316-.333,1.18.692,1.523,1.739.994-1.46.2-2.7-.341-4.13,2.735-.512,5.674-1.008,8.386-.1,1.961.658,3.639,2.274,5.709,2.587,2.027.306,2.417-.656,3.911-1.631,1.213-.792,2.255.141,2.88-.457-.385,2.019-3.695,1.743-3.288,4.266.184,1.135,1.575,2.156,2.209,3.039a19.286,19.286,0,0,1,1.971,3.585c2.107,4.861,3.007,10.5,3.891,15.7,2.181,12.831,2.458,25.915,4.51,38.787.978,6.131,1.958,12.266,2.466,18.457.127,1.548,1.072,5.059.3,6.549-.654,1.257-2.109,1.261-3.386,1.565a60.786,60.786,0,0,0-7.244,2.3c-2.149.8-2.774,1.293-4.153-.729-1.334-1.957-1.994-4.289-2.949-6.434-1.216-2.733-2.685-5.37-4.1-8.007,2.771,0,4.365-1.5,4.292-4.311-.08-3.119-2.645-3.858-3.7-6.421-1.028,1.336-1.115,1.373-1.848.105-.838-1.45-1.4-4.1-1.917-5.747l1.1,1.174c.925-1.273-.524-3.279-1.008-4.477-.748-1.851-.879-3.851-1.589-5.7-.387-1.007-1.283-1.8-1.5-2.851-.147-.7.441-1.373.3-2.087-.243-1.243-1.649-2.577-2.086-3.841-.673-1.945-1.4-3.657-2.238-5.552-1.13-2.565-.867-5.256-1.074-7.985-.214-2.83-1.121-5.538-1.441-8.356-.221-1.947.471-4.4-1-5.957-.172,2.592.57,2.552-1.865,3.018-2.772.53-4.783,2.6-7.4,3.212-.54.127-.934-2.233-.723.987-1.257-.928-3.941.224-2.94.775-.759.812-2.253.25-2.5,1.466-2.579-2.507-6.714,6.026-9.785,1.575a6.148,6.148,0,0,1-5.624,5.2,17.8,17.8,0,0,0-3.692,1.134c-.265.089-.363.471-.678.574-.48.157-1.186-.316-1.532-.224-.7.187-1.488,1.114-2.472,1.3a11.916,11.916,0,0,1-3.487-.016,6.3,6.3,0,0,0-3.415.134c-1.243.419-2.575,1.59-3.728.314-1.812,3.136-6.134,2.369-8.267.038m83.788-37.839c-1.372-.164-.419-1.344.216-1.7,1.726-.962,1.265,1.876-.216,1.7M95.193,75c8.05-11.614,21.819-19.593,33.935-26.307,6.617-3.667,13.372-7.222,20.32-10.223,3.455-1.492,6.949-2.925,10.477-4.236,1.884-.7,3.79-1.336,5.7-1.97a6.88,6.88,0,0,1,2.039-.659c-.1-.009,1.372.39,1.084.515.945-.411,1.4-1.485,2.506-1.914a13.469,13.469,0,0,1,4.178-.726c1.184-.039,2.209.45,3.336.489a19.409,19.409,0,0,0,2.1-.379c.371-.026.338.53.562.562.1.014,1.086-.357,1.1-.351.36.231.679,1.134,1,1.487a10.4,10.4,0,0,0,3.549,2.248c1.515.647,5.211,1.3,3.5,3.694,1.217-.175,1.783.925.26,1.2-.825.151-1.178-.6-1.791-1.12-1.416-1.189-4.852-2.882-6.891-2.805-1.147.043-2.034.914-3.091,1.23-1.041.311-1.557-.171-2.471-.095-1.068.089-1.755.992-2.773,1.153-.953.151-1.484-.5-2.336-.454-1.012.054-1.993.933-2.96,1.228a21.934,21.934,0,0,0-4.168,1.569c-2.909,1.51-6.158,2.083-9.156,3.383-2.4,1.039-5.115,1.586-7.333,2.735-2.466,1.277-4.944,2.549-7.359,3.936-1.745,1-5.292,1.347-7.215,1.093-.028,3.542-1.771,1.059-3.528,2.611a4,4,0,0,0,1.414.809c-1.9.761-3.664,1.707-5.509,2.581-1.907.9-3.941,1.1-5.193,2.813-1.154,1.576-.763.763-2.485,1.384a6.553,6.553,0,0,0-2.046,1.737c-.978,1-1.195,2.522-1.754.46-.163.251-.8,1.852-.929,1.892-.7-.743-.8.138-1.192.453q.309,1.027-.883,1.346-.6.449-1.221.879c-1.493,1.035-3.393,1.924-4.444,3.466a1.417,1.417,0,0,1-.59-2.053c-1.482,1.366-3.249,2.768-3.65,4.87a1.643,1.643,0,0,0-.643-.385c-.6.406.182,1.616.563,1.889,1.663-.646-.416-.412.7-.308.318.029.646.268,1,.272a17.9,17.9,0,0,0,3.021-.193,50.53,50.53,0,0,0,6.649-1.643c2.376-.706,4.752-1.412,7.075-2.278,1.913-.713,3.794-1.509,5.675-2.3.751-.317,1.5-.637,2.254-.952,1.429-.6,2.182-1.578,1.983.1,1.138-.189,2.124-1.8,3-2.453a13.863,13.863,0,0,1,4.067-2.081,5.1,5.1,0,0,1,1.633-.435c.3,0,.478.842.666.8,1.307-.317.711-1.041,1.3-2.084,1.285-2.28,4.746-3.541,6.872-4.836,1.349-.822,2.307-1.928,3.552-2.839a4.688,4.688,0,0,1,1.616-.794c.467-.138,1.041.935,1.344-.144-1.087-.444-1.984-.992-3.03-1.317-.74-.23.148-1.017-1.025-.549-.471.188-.633,1.1-.806,1.481-1.31-1.17-4.992.042-6.546.532-.107.034-.587-.22-.813-.2-.9.06-1.522,1.267-2.112,1.788a16.772,16.772,0,0,1-5.206,2.75c.514-2.811,4.3-3.962,6.5-5.039,3.226-1.574,6.229-3.583,9.761-4.429,2.352-.564,5.469-1.018,6.485,1.716.608,1.639.685,5.712-1.373,6.468-.217-.765.479-1.419.688-2.083-2.048.782-2.385,3.242-3.94,4.525a5.768,5.768,0,0,0-1.609,1.65,5.487,5.487,0,0,1-1.6,2.074c-1.608-3.415-1.336,1.263-2.151,1.849.328-.236-1.329.453-1.131.38-.077.028-.8-1.141-1.266-1.116-.852.045-.688.982-1.1,1.455A6.147,6.147,0,0,1,137.9,67.2c-.052,1.137.3,2.495-1.254,2.6l-.2-2.52a22.713,22.713,0,0,0-2.644,2.656c-.782,1.126-.7,1.819-2,2.57-1.356.785-4.242,2.33-5.856,2.464a1.022,1.022,0,0,0-.211-1.533c-.812.837-2.01.919-2.874,1.675,3,1.253-2.3,1.188-2.977,1.33-.45.1-.844.506-1.3.6-.606.123-.684-.514-1.206-.312-.763.3-.453,1.13-1.251,1.549-.573.3-1.546.3-2.193.583-1.542.683-4.826,2.195-5.867.361-.528,3.147-5.92,1.231-7.917,1.02-2.734-.29-7.5-1.573-4.959-5.233m11.482-32.2a.77.77,0,0,1,1.161.073c-.539-2.848,3.631-4.23,5.451-5.441,2.413-1.606,5.254-4.721,8.412-4.475l-1.614,1.2,2.3.3q-.649.954-1.3,1.906c-.709-3.906-4.406,1.025-5.477,1.744a23.947,23.947,0,0,0-3.11,2.145c-.949.874-1.805,2.448-3.374,1.662-.143,2.231-1.937,1.626-3.177,2.861a3.706,3.706,0,0,1,.725-1.971M123.059,31.67c3.817-1.43,7.141-4.073,10.738-5.962,3.436-1.8,6.941-3.424,10.434-5.107,1.772-.854,5.017-3.063,7.043-1.937,2.733,1.52-1.03,2.01-2.007,2.536-.361-2.34-1.628-.22-.871,1.082-2.086-.9-6.634,2.623-8.623,3.595-.45.22-.248.347-.761.606-.126.064-1.432.361-1.805.486-1.873.627-3.107.129-3.914,2.39l-.507-1.6c-1.173,2.633-4.737,3.785-7.016,5.342-.587.4-2.265,1.958-3.01,1.636-1.037-.449-.621-2.727.3-3.071m68.862,7.938c1.612.107.058.858.5,1.355-.05-.056.971.815.837.576.18.321.613.31.834.963.762,2.247-2.566,4.568-3.689,5.843-2.183,2.48-3.444,5.62-5.719,8.021a7.381,7.381,0,0,1-3.473,2.237c-1,.283-2.051-.02-2.967.938-.738.772-.57,1.21-1.386,1.621-1.436.723-2.069.089-3.466,1.652-1.2-3.269,2.253-3.264,4.056-5.091,2.489-2.522,5.216-5.067,7.55-7.765a19.626,19.626,0,0,0,3.888-7.412c.31-.918.648-2.887,1.5-3.464,1.332-.9.533.459,1.531.526m7.925,84.928A52.214,52.214,0,0,1,215,112.716c2.031-1.018,4.923-2.355,7.029-.787,2.065,1.536,1.62,4.6.788,6.686-.8-.313-.045-3.243-.459-3.967-.9-1.58-2.851-.741-4.177-.211a13.057,13.057,0,0,0-4.168,2.432c-.5.456-1.455.865-1.774,1.179q-.72-.3-.848.436a1.223,1.223,0,0,1-.036.886c-.07.092-.695-.287-.783-.211-.4.347-.784.755-1.183,1.077a11.82,11.82,0,0,0-2.217,1.855c-1.422,1.743-3.3,2.764-4.732,4.425a10.808,10.808,0,0,0-.782,1.422c-.722.843-1.793,1.51-2.608,2.4a38.826,38.826,0,0,1-4.538,3.9,8.129,8.129,0,0,0-1.982,1.973,12.2,12.2,0,0,0-.339,2.347c-1.594,1.747-1.284-1.765-1.164-2.205,1.294-4.738,5.671-8.295,8.817-11.815m-8.7,32.037c.2.744.361,1.359.563,2.114-1.264-1.037-1.264-1.037-.563-2.114m-1.365,2.437q-.7.7-1.4,1.4c-1.034-1.093,1.591-1.582,1.4-1.4m-.656-18.814c-.494,2-2.3,4.425-3.549,6,.137-.174-1.062.176-1.2.255-.443.257.618,1.92-.918,1.177-.545.308.528,1.565-.212,2.127-2.14-4.877,3.7-9.1,5.966-12.722,1.107,1.016.189,2.038-.089,3.16m-13.9,26.367c1.56.4,2.372.149,3.426-1.384.633-.921.865-2.551,2.313-1.174l.255-1.771c2.068.848,1.894,3.914,2.8,5.613.44-1.922,1.481-7.291,4.67-6.43,3.579.967-2.378,7.123-2.931,8.631-1.217-1.888-.738-.132-1.666.134-.8.229-2.041-.357-3.008-.3-2.944.16-5.531,1.485-8.22,2.606l-2.043-5.508c1.583.122,4.857-4.093,5.322-1.03-1.174-.2-1.505-.152-2.077.917a2.758,2.758,0,0,1,1.162-.3m6.609,23.964c0-.015,3.046.174,3.318.074,2.087-.762,1.316-3.13,1.742-4.8.861.791.4,2.235.67,3.259.311,1.2,1.213,2.229,1.3,3.515.19,2.907-2.2,2.262-4,3.2-1.545.8-1.716,1.815-3.021-.351a6.793,6.793,0,0,1-1.035-2.864c.077-.743,1.253-1.36,1.034-2.033m2.458,12.58-.844-.945c2.513.769,1.031-.387,1.609-1.969,1.929,1.284,3.5,2.6,5.029.033l2.637,10.637c-1.771.417-4.056-2.32-5.271-3.26-.7-.543-4.6-2.636-2.257-3.246l-.9-1.25m17.214-33.4a32.8,32.8,0,0,1-4.532,3.266c-1.4.961-.917,2.063-2.128,3.134a24.5,24.5,0,0,1-3.685,1.981,4.745,4.745,0,0,1-5.179.069c.5,3.992-2.238,4.3-5.641,5.095-1.623.377-2.584.954-3.753-.533-.8-1.017-1.115-2.859-.118-3.79,1.583-1.479,5.8-.968,7.831-1.9,1.541-.705,3.111-4.679,5.012-3.233-.981-1.563.161-1.984,1.014-3.1.934-1.221,1.508-2.649,2.475-3.861a24.986,24.986,0,0,1,7.264-6.008c2.3-1.221,3.5-.357,3.844,2.209a7.258,7.258,0,0,1-.556,4.355c-.23.365-.99.369-1.22.712-.4.6-.033,1.036-.626,1.6m26.932-30.958c1.831,1.417,1.653,4.4,1.941,6.424a54,54,0,0,1,.068,8.538c-.046,3.051-1.543,5.038-2.247,7.9a21.253,21.253,0,0,1-3.55,7.535c1.9.3-.93,5.988-1.4,6.725-.507.8-4.6,4.483-2.845,4.483-.968,1.276-2.021,2.586-2.986,3.827-.38.489-1.045.68-1.344,1.025a9.318,9.318,0,0,0-1.082,2.144c-.662,1.241-.88.91-1.751,1.811-.6.622-1,1.443-1.586,2.04-1.9,1.921-2.145.347-3.209-1.132a1.2,1.2,0,0,1-.869.745c-.333-1.674,1.96-3.365,2.924-4.382a66.439,66.439,0,0,0,4.419-5.327,70.892,70.892,0,0,0,7.8-12.5,60.365,60.365,0,0,0,4.993-15.012c.713-3.934,1.392-10.682-3.865-11.683-3.823-.728-8.038,1.6-11.189,3.476-1.921,1.145-3.852,2.284-5.681,3.573-1.986,1.4-3.7,3.375-5.858,4.5,1.179-.613-2.711,1.233-2.116.713-.279.243-.038.984-.223,1.318-.24.435-1.075.865-1.449,1.146-.989.743-2.569,1.5-3.019,2.73-6.272-4.475,6.2-12.419,9.4-14.442,6.342-4.013,17.379-11.853,24.723-6.168m16.92-43.519c-.06-3.222,2.564-7.621,4.336-10.249.867-1.286,2.252-1.235,2.76-2.752.293-.874-.091-1.789,0-2.666a7.684,7.684,0,0,1,1.226-3.157c5.364-9.216,11.882-17.374,18.823-25.414,3.423-3.964,6.668-8.08,10.359-11.8,1.542-1.555,5.687-7.146,8.058-6.587,1.256.3,1.986,2.212,2.553,3.19a43.046,43.046,0,0,0,3.107,4.618,45.648,45.648,0,0,0,10.569,10.154c2.557,1.739,5.141,3.429,7.641,5.251,2.058,1.5,5.171,3.213,6.64,5.319s-.689,3.889-1.869,5.637c-1.834,2.719-3.521,5.536-5.363,8.252-.732-.526-.543-1.6-1.044-2.269a5.111,5.111,0,0,0-1.689-1.21c-1.178-.706-2.334-1.569-3.4-.386-1.862,2.07.7,6.962,3.458,6.425.325,2.043-5.185,5.407-6.566,6.531-4.238,3.448-8.61,6.446-14.208,6.758a17.579,17.579,0,0,1-6.776-.8,7.9,7.9,0,0,1-2.962-1.653c-.947-.948-1.188-2.358-2.106-3.3-.8-.814-1.89-.939-2.686-1.756a7.83,7.83,0,0,1-1.514-3.168c-.632-2.069-.752-4.251-1.359-6.325-.366-1.247-.666-2.915-1.858-1.716-1.731,1.741-.862,7.216-.419,9.3.634,2.976,2.12,5.375,3.677,7.936a18.687,18.687,0,0,1,2.614,8.568,48.911,48.911,0,0,0,4.979,17.2c1.131,2.279,2.485,4.422,3.706,6.649.57,1.039,1.848,4.584,3.4,4.565,2.478-.031-1.052-7.257-1.542-8.47-2.715-6.719-5.308-13.782-5.889-21.057,3.891,1,8.133,1.954,12.163,1.319-2.6,5.817.116,11.608-.217,17.6-.166,3-.286,5.773-.224,8.766.055,2.625-1.131,5.249-2.156,7.623-2.035,4.714-4.6,10.53-8.378,14.141-3.16,3.019-7.388,3.255-11.517,2.56-9.393-1.582-15.565-8.8-19.507-17a73.327,73.327,0,0,1-5.671-16.614c-1.392-6.622-1.024-13.288-1.148-20m12.2-44.625c-8.766-6.342,3.972-13.545,10.456-12.564,1.521.23,4.319.858,4.177,2.843-.117,1.622-2.822,3.431-3.861,4.432-2.963,2.857-5.978,8.757-10.771,5.289m63.769,140.929c-.3-.27-2.754.392-1.782-1.06.808-1.206,3.047.305,3.86.616-.67.463-1.254,1.181-2.078.444m-36.5,76.71c-.753.093-1.541-1.939,1.175-.421l-1.175.421m-.078,33.117c.094.911.372,1.511-.275,2.173a1.378,1.378,0,0,1,.275-2.173m1.1,13.683q-.12.743-.239,1.486l-1.881-.952,2.12-.534m.768-11.538c.935.35.5-.768,1.178-.925a3.839,3.839,0,0,1-.725,3.12c-.064-.227-.406-2.178-.454-2.2m23.889-82.57c-1.311-.167-1.51,1.218-2.488,1.756-.631.347-2.552.087-2.911.751l1.42.41-3.251,1.752c2.606,0,5.322-1.245,7.911-.879a3.6,3.6,0,0,1,2.583,1.415,4.591,4.591,0,0,1,.85,2.071c.072.716-.486,1.21-.387,1.552,1.167.032,1.029,1.945.767,2.725-.568,1.691-2.824,4.339-4.846,3.267.846,1.2.63,1.885-.62,2.582.114-.4.2-1.091-.442-1.022-.164.665-.1,1.72-.645,2.222-.608.561-1.151-.095-1.732.27-.689.433-.482,1.113-1.024,1.583-.717.62-.819.18-1.676.3-1.3.184-.47-.623-1.509.428-.36.363-.3,1.306-.882,1.837-1.12,1.019-4.107,2.081-5.179.774-2.579,4.087-10.308,5.068-13.906,1.841-5.738-5.145,4.961-15.609,8.493-18.926a100.223,100.223,0,0,1,11.468-8.978c2.264-1.576,4.587-3.007,6.959-4.412,1.463-.867,3.3-2.45,5.1-2.3,1.613.137,2.991,1.388,4.689,1.636,1.228.179,3.614.474,2.064,2.14a13.513,13.513,0,0,1-4.539,2.226c-.569.111-1.169-.1-1.733.014-.955.2-1.61,1-2.649.9.329,1.542-.271,2.267-1.885,2.063M327.485,163.7c0,1.206-2.2.905-2.661.5-.757-.674-.783-2.689-1.064-3.606,1.28.322,3.724,1.5,3.725,3.11m-17.734-39.79a119.763,119.763,0,0,1,14.626-10.355c1.841-1.1,4.439-3.316,6.726-3.039.959.117,2.941,1.218,2.219,2.432-.135.227-1.2.318-1.532.483-.374.187-.667.7-1.014.955-2.4,1.762-5.287,2.844-7.7,4.648a70.785,70.785,0,0,1-5.958,4.411c-2.045,1.219-4.182,1.991-6.123,3.341.038-.027-2.525.895-2.023,1.062-2.25-.753.127-3.407.774-3.94m30.831-1.416a69.157,69.157,0,0,1,8.311-3.159,12.272,12.272,0,0,1,4.394-.478.652.652,0,0,1,1.009-.293,3.28,3.28,0,0,0,1.3,1.161c.819.63,3.836,1.453,3.233,2.844-.4.92-3.423,1-4.253,1.2-2.5.623-4.836,2.025-7.413,2.37a4.368,4.368,0,0,1-1.041-.259c-1.006.22-1.843,1.263-2.707,1.764-1.86,1.077-4.532,1.257-5.868,3.116,4.325,2.932,8.078.024,11.88-2.19a39.7,39.7,0,0,1,7.213-3.132c1.3-.444,2.614-.905,3.932-1.295a8.745,8.745,0,0,1,1.682-.43.948.948,0,0,1,1.15.585c1.594-.053,1.731-1.053,2.69.812,1.353,2.63-.717,2.5-2.662,2.82-2.7.447-5.44,1.455-8.1,2.123-.613.154-5.988,1.4-5.994,1.445-.244,1.7,15.182.125,16.506-.129,2.337-.45,4.843-1.726,7.263-1.419,1.858.236,6.089,2.961,3.126,4.772-.583-2.792-2.586-.486-3.631.456-1.393,1.254-3.388,1.134-5.3,1.625-2.612.671-9.3,3.189-11.155-.021.587,2.814-10.073,1.384-11.539,1.291-1.429-.091-3.273.212-4.654-.195-.9-.265-1.4-.851-2.249-.983a1.58,1.58,0,0,1-.746.457,4.739,4.739,0,0,1-1.164-.829c-2.855-1.312-7.272-2.037-5.686-6.217,1.5-3.942,6.843-6.368,10.472-7.815m26.759,2.436q.107-.368.213-.737c.009.753,1.8,1.074,1.6,2.05-.46,2.16-2.532-1.085-2.709-1.439l.9.127m10.961,3.588c.208.885,2.6,2.768,2,3.2-.941-1.28-3.543-.7-2-3.2M338.03,209.247c.874-1.734,3.516,1.218,3.237-1.741,1.437.13.54,1.223,2.262.743.645-.18,1.081-.9,1.868-1.06.21-.044,1.115.028,1.428.018,1.035-.032,5.093-.147,2.3-1.505,1.563-1.034,1.756-.509,3.167.438-.362-1.958,1.714-.846,2.681-.6-.689-1.117,1.021-2.3,1.576-3.059-.2,1.163-.094,2.464,1.588,1.721.419-.185.325-1.007.658-1.141.609-.245.949.2,1.167.176a3.16,3.16,0,0,0,1.119-.074c.587-.221.3-1.008,1.048-1.125.484-.076.838.636,1.43.642.3,0,.811-.305,1.041-.289.041,0,.33-.694.685-.711.519-.025.73,1.366.92,1.636a8.886,8.886,0,0,0,3.511,2.817c-2.522,2.312-7.609,2.067-10.78,2.847a22.168,22.168,0,0,0-4.754,1.817,3.885,3.885,0,0,0-.979.908l-.668-.443c-.861.053-1.676-.373-2.645-.21-2.994.505-5.339,2.748-8.382,3.248-1.367.225-2.491.539-3.382-.647-.782-1.04-.652-3.3-.1-4.4m-4.106-13.817c.679.574-.138,2.442,1.176,2.239.932-.144.746-1.591,1.479-1.9.962-.4,1.542.552,2.446.464,1.685-.166,1.589-1.638.165-2.284,1.48-.391,1.955,1.36,3.266,1.344,1.722-.021,1.311-2.052,2.776-2.389.635-.146.423.786.834.9a2.828,2.828,0,0,0,2.127-.516c.652-.313,1.117-.917,1.829-1.121.324-.094,1.148.078,1.386-.1.48-.35.909-1.712,1.382-1.892a10.123,10.123,0,0,0,1.673.885q-.2.863-.945.205c0,1.3,3.607,1.7,2.867.1,1.951.808.5,1.223.3,2.35-.078.453-.341.441-.263.92.036.221,1.058.031,1.046.331-.087,1.937-6.261,2.533-7.43,2.7a45.061,45.061,0,0,0-7.048,1.682c-1.738.546-4.734,2.108-6.584,2.011-2.66-.14-3.007-3.61-2.485-5.942m-5.943-19.767c-.649-2.155,1.432-6.606,4.142-6.05.666.137.831.689,1.347.934.722.343,1.9.162,2.521.516,1.4.794.7,2.817,2.1,3.548-2.219.538-9.081,4.477-10.112,1.052m2.568,8.373c.956-.514,2.506-.58,3.157-1.568.325.225.939,1.59,1.521,1.381.272-.1.553-.837.533-.836.519-.015.622-.717,1.414-.638.728.073,1.542.948,2.19,1.274-.111-2.169.444-2.376,2.2-3.536.386-.254.708-1.209,1.063-1.6-.34,2.276.517,2.288,2.335,2.63a5.8,5.8,0,0,1,4.61,3.853c-1.941-.378-4.445.077-5.211,2.164-1.549-2.831-7.18,1.075-9,1.875-1.352.594-2.925,1.392-4.059.008-.8-.975-.341-2.147-.324-3.013,0-.272.285-.288.26-.693-.033-.517-.706-.723-.692-1.3m20.726,44.513c-.513.194-3.152.3-3.169-.571-.014-.772,4.657.006,3.169.571m-4.286-2.828c-2,1.231-4.23-3.106-4.965-4.355,2.094.268,3.117-1.484,4.351-2.815,1.174,2.572,2.956,1.213,4.831.354,2.211-1.013,4.634-1.021,6.9-1.834.707-.254,1.359-.631,2.048-.921q.834-.312,1.661-.639a1.276,1.276,0,0,0,.417-1.3q-.278-.65.38-.82a6.6,6.6,0,0,0,1.6.27c.873-.173,2.127-1,1.074-1.884,1.129-1.025,2.26-.006,3.347.443q-.388-1.1-.774-2.209c.539.229,2.14,2.466,2.3,2.453,1.035-.078.927-1.466,1.522-2.027.343.423.441,3.579,1.791,2.516.577-.454-.665-2-.971-2.355,1.543.348,2.891,2.191,3.308,3.621a2.875,2.875,0,0,1-2.033-.443c-.4,1.992,3.289,1.185,3.886,2.226,1.169,2.037-6.435,3.452-7.426,3.641-1.983.378-4.322.519-6.139,1.4a8.745,8.745,0,0,1-4.187,1.24,38.839,38.839,0,0,0-6.834,1.541c-1.95.517-4.356.838-6.085,1.9m42.44-72.926c1.834-.66,8.009-4.084,9.582-2.561a16.1,16.1,0,0,0,1.12,2.355c.112,1.4.078,1.959-1.642,2.628-1.231.479-2.3-.539-3.412-.135-1.217.444-.366,1.231-.992,1.78a8.456,8.456,0,0,1-2.864,1.126c-2.091.646-4.2,1.185-6.279,1.881-4.234,1.416-8.718,2.733-13.069,3.734-3.252.748-8.771,2.608-11.767.411-.293,1.248-1.007,1.078-2,1.26a27.5,27.5,0,0,1-2.879.548c-1.152.034-4.355-.268-3.914-1.884-.121.445,2.491-1.078,2.039-1.173,1.11.234.75-.325,1.659-.636,1.187-.406,2.428-.384,3.64-.814,3.056-1.083,5.618-2.489,8.844-3.167,7.367-1.55,14.825-2.8,21.932-5.354M94.114,319.726c-.6.016-1.061-1.68.755-.469l-.755.469m-14.345-2.194q-1.218.312-.97-1.359,1.7-.671.97,1.359M68.694,315.26c-.208-.992.528-1.216,1.195-1.662-.067,1.315-.067,1.315-1.195,1.662M40.83,307.093c-1.123-.247-2.618-1.344-2.875.5-.188-.427-1.146-2.434-.735-2.9.215-.243,1.028.881.942.77.982-1.987,2.676.411,3.622,1.12l-.954.51M332.683,87.477q.581-1.229,1.37-.78c-.825,1.917-3.62,2.956-1.37.78M352.1,69.486c.692,1.3-.349,1.847-1.092,2.925.435-1.164.736-1.97,1.092-2.925m84.4,126.7c2.5,0,7.816-1.319,9.322,1.536,1-1.94,2.129,1.7,2.994,2.281.1.066.72-.41,1.009-.235a4.255,4.255,0,0,1,1.064,1.412,18.816,18.816,0,0,1,1.5,4.244c-4.361,0-8.833-1.015-13.191-1.384a61.191,61.191,0,0,0-8.529-.1,21.363,21.363,0,0,0-2.186-.05c-.494.109-1.391,1.116-1.936.954.847,1.59,11.695,5.439,12.523,3.678-.981-.593-3.159-1.049-3.157-2.483,0-1.606,2.043-1.6,3.125-1.556,2.366.1,6.329.891,7.3,3.352a8.719,8.719,0,0,1,.087,4.729c-.295.657-.794,1.448-1.585,1.582-.324.055-.792-.377-.841-.366-1.623.344-4.628,1.648-6.4-.19-1.277,1.652-7.427-.152-9.31-.776-3.293-1.09-7.827-2.587-9.827-5.66-2.438-3.745,2.519-6.91,5.365-8.432,3.89-2.08,8.335-2.538,12.678-2.54m16.618,8.659,2.3.649c-.2,1.342-3.225.28-2.3-.649m23.138,48.784c.235-5.377-1.319-10.113-2.217-15.313-.223-1.289,0-3.543-.975-4.6-.935-1.014-3.023-.19-3.106-1.981-.921,1.079-.828,1.3-1.964.064a2.551,2.551,0,0,1,.09,1.624c-.7-.4-3.258-1.745-3.043.089-2.1-.464-1.492-1.778-2.689-2.78-.17-.142-.854.363-1.12.148a7.191,7.191,0,0,1-1.126-1.247,11.306,11.306,0,0,1-1.85,1.568,2.822,2.822,0,0,0-1.939-1.579c.8,1.679,2.786,3.853.065,4.809-1.624.57-4.284-.129-6,0-6.375.494-13.357-.9-19.521-2.414a73.185,73.185,0,0,1-18.429-6.981,20.982,20.982,0,0,1-3.024-2.35,10.35,10.35,0,0,0-2.976-1.487,19.123,19.123,0,0,1-5.882-4.182c-3.6-3.661-6.937-8.448-5.936-13.808,1-5.342,4.67-9.516,8.6-13.034a70.817,70.817,0,0,1,15.44-10.42c2.486-1.25,8.846-5.946,11.3-3.2a2.541,2.541,0,0,1-1.458,4.385c-.529.1-1.082-.258-1.617-.015-.771.351-.5.765-.818,1.058a9.94,9.94,0,0,1-1.966,1.741,86.848,86.848,0,0,0-8.424,4.627c-1.27.862-2.493,1.233-3.612,1.986s-1.367,1.987-2.864,1.223c.533,2.178-2.669,4.51-3.924,5.844-1.944,2.066-4.275,4.7-3.368,7.76,1.776,5.984,9.8,10.529,14.934,13.159a68.519,68.519,0,0,0,20.609,6.976c3.547.537,7.213.869,10.787,1.21,2.782.265,7.052-.706,9.054,1.8.062-2.922,9.188-2.664,11.13-3.038-3.894-13.312-11.541-25.148-19.716-36.206a190.983,190.983,0,0,0-12.525-15.987c-5.007-5.448-10.727-10.316-16.162-15.329a242.012,242.012,0,0,0-34.985-26.337c-12.24-7.712-24.916-15.3-38.326-20.8-15.316-6.28-31.44-10.41-47.582-13.928,2.19-2.79,5.752-4.151,8.555-6.192.982-.715,2.309-2.43,3.584-2.664,1.381-.254,2.468,1.231,3.451,1.977,2.821,2.14,4.773,1.231,8,1.1,1.934-.077,6.513,1,7.328-1.616,1.084,1.443-.488,2.6-1.293,3.659.586.817,1.058-.031,1.636-.158l.535-.444q.431-.623.776-.008.517.779,1.042-.345l.287-.181a11.829,11.829,0,0,0,1.21-.852,56.613,56.613,0,0,1,8.8-5.432c2.722-1.3,1.258-3.78,3.053-5.533.406-.4,1.09-.2,1.524-.534s.489-.7.8-1.058c.746-.851-.142-1.838,1.761-.8l-.686-3.862c3.73,3.619,3.715-6.8,4.225-8.336-.067.2.335-1.373.334-1.36.109-3.125.536-5.39-3.124-5.572,1.386-.872,1.809.831,2.449-.932.32-.883-.68-2.4.914-1.831a12.228,12.228,0,0,0-.414-5.219,18.557,18.557,0,0,1-.157-4.979c.022-2.117-.969-4.245-1.287-6.33-.248-1.633.008-4.208-2.1-3.608-.3-.464.746-1.893.7-2.6-.066-1.1-1.257-2.212-1.594-3.266a1.758,1.758,0,0,1-1.871.451c.634-1.432.039-1.912-.568-3.147-.348-.707-.138-1.487-.882-1.994-.427-.291-1.154.2-1.489-.142-.717-.73-.452-1.7-.945-2.66-.619-1.206-2.032-2.127-3.006-3.033-5.475-5.089-11.421-8.978-18.7-10.966C314.615,6.22,306.05,5.5,298.728,7.816c-2.927.925-5.525.83-8.159,2.557-.854.56-.946.41-1.38,1.344-.1.218.809.8.253,1.154-.605.387-1.273-.4-1.582-1.052a31.5,31.5,0,0,0-9.552,10.652c-2.157,4.19-2.355,9.112-3.178,13.665-3.8-4.339-8.936-6.42-14.522-4.334a14.717,14.717,0,0,0-9.594,10.99,14.585,14.585,0,0,0,1.487,9.2,9.257,9.257,0,0,0,2.51,3.421c.9.655,2.445.563,2.869,1.744.65,1.809-3.106,5.716-4.082,7.3a58.626,58.626,0,0,0-4.651,8.954c-4.474-6.32-8.757-13.223-13.845-19.051a138.468,138.468,0,0,0-16.139-15.082,285.373,285.373,0,0,0-36.8-26.4c-12.136-7.158-26.8-11.132-40.939-9.727-13.819,1.373-24.4,10.113-33.3,20.194C91,42.723,80.52,70.348,79.5,96.149a79.5,79.5,0,0,0,2.2,22.917c.912,3.579.779,7.1,1.309,10.725.6,4.09,1.632,8.165,2.632,12.171a437.723,437.723,0,0,0,14.11,45.267,99.462,99.462,0,0,0,10.894,21.941c2.141,3.126,4.914,5.571,7.218,8.539,2.235,2.878,2.825,6.411,3.317,9.943,1.178,8.469,1.96,16.973,2.669,25.491.3,3.61.652,7.188,1.13,10.773.417,3.126-.632,2.972-3.261,4.033.533-2.808-12.029-.9-13.215-.706-1.291.208-2.658.211-3.674.377a17.783,17.783,0,0,1-3.558.415c-1.924-.055-5.527-.547-6.262,1.909-.506-2.848-3.846.266-1.374-.263-2.536.284-5.125-.188-7.692.051-2.942.273-5.909.533-8.831.976-2.034.308-3.974,1.091-6.012,1.319-2.607.291-5.328.264-7.96.5a185.084,185.084,0,0,0-29.211,5.4,45.7,45.7,0,0,0-6.637,1.821c-.547.235-1.039.763-1.563.965-.878.339-.758.1-1.538.26-4.673.934-9.494,2.46-14.167,3.657-2.592.665-6.808,1.264-8.922,3.073-.948.81-1.776,2.247-.257,3.167,1.213.735,2.945-.439,3.927-1.073-.875,2.28-2.525,3.416-1.633,6.009.7,2.05,2.292,4.575,4.735,3.253.327.761.46,2.275,1.423,2.555.866.251,1.493-.846,2.341-.587.3.092.188.666.46.816a8.772,8.772,0,0,0,1.48.549,8.442,8.442,0,0,0,1.686.512c.305.022,1.025-.5,1.023-.5.7.107,1.079,1.449,1.584,1.837a4.436,4.436,0,0,0,2.018.8c1.707.379,3.907,1.029,5.034-.719-.258,1.248,1.439,1.125,2.188,1.284a2.264,2.264,0,0,0-1.007-1.621c1.674.111,1,1.775,2.233,2.214.882.313.782-.482,1.456-.57.889-.116,1.563.529,2.951-.066.3,1.337.411,2.685,2.053,2.884.964.117,3.21-1.623,3.083-.175,2.153-.631,2.97-.2,4.095,1.693.19-1.165,1.11-.827,1.954-.9,1.338-.114,1.372-.007,2.409-.764.095-.069.911-1.938,1.273-.776.163.52-.915,1.745-1.314,2.056.5.251,2.12,1.128,2.744.967.54-.139.542-1.063,1.191-1.111q-.238.8-.477,1.593c1.263.184,2.319-.662,3.316-1.281.951,2.405,3.67,1.05,5.149,2.86.782.958.819,1.685,2.309,1.935,1.525.256,2.857-.413,4.153.845-.411-.781-1.434-1.428-.417-2.267a34.068,34.068,0,0,0,1.848,3.079l.33-1.394c2.081,2.226,4.7,2.245,7.366,3.479V316.66c1.908,2.913,2.01,1.07,4.29-.12q-.232,1.285-.465,2.569c1.641-.124,3.173,1.82,4.52.169.813,1.364,1.8.693,3.133,1.126.758.247,1.323.993,2.06,1.263,1.106.4,1.436.386,2.478.739.926.313,1.452.923,2.611,1.118a9.7,9.7,0,0,0,2.156.083c.278-.014.187-.64.805-.494.957.227,1.669,1.426,2.357,2.041,1.036-2.6,3.937.884,5.339,1.349a4.082,4.082,0,0,1,.593-2.021c.567,1.243.784,2.288,1.962,3.089a7.546,7.546,0,0,0,2.463.962,16.116,16.116,0,0,1,1.71.132c.532.261.728.957,1.266,1.022.316.038.785-.793,1.021-.729,1.083.3,1.685,1.611,2.778,2.323,3.255,2.117,7.35,2.323,10.976,2.787.91.116,1.042-.132,1.781.4.394.286.215,1.153.7,1.4,1.828.916,1.829-1.038,2.212-2.253.6.8.709,1.851,1.536,2.485a13.146,13.146,0,0,1,1.354.031,2.157,2.157,0,0,1,.5,1c1.095.739,2.335.482,3.466,1.037.371.182,1.028,1.282,1.485,1.6a10.178,10.178,0,0,0,3.016,1.115c1.959.516,4.768-.17,5.933,1.876,1.548-1.659.949.322,2,.738.62.245,1.553-.731,2.242-.634,1.239.174,1.685,1.516,2.082,2.491.755-.168.237-2.3.215-2.771.938-.111,1.146,2.359,1.308,2.9,1.48-.713-.949-2.931.642-3.643-.146,1.89,1.36,3.446-1.33,3.717.371,1.138,9.048,2.4,9.651,1.4.134,1.858,1.382.122,1.842-.513.052,1.084-.317,2.622.9,3.126a3.131,3.131,0,0,0,3.014-1.353c.37,1.237.991,1.2,1.762,1.983.53.54.879,1.476,1.434,1.928,1.022.832,2.924.7,4.116.519,2.331-.364,2.056-.811,2.886,1.612.188-.919.776-2.842,1.8-1.413.653.908-.738,2.91-1.14,3.708a10.461,10.461,0,0,1,2.812-1.291,2.639,2.639,0,0,1-.041,1.274c.031-.059,1.121.672,1.525.875a10.977,10.977,0,0,1,.308-1.809c1.438.888.44,2.585,1.714,3.46.329.227,1.1-.038,1.5.1a11.046,11.046,0,0,1,1.908,1.269,4.177,4.177,0,0,1-.387-2.527c.313.173.537.821.853.872.12.019,1.359.184,1.35.178,1.29.9,1.024,1.017-.083,2.1.4.622,2.049-.458,2.5-.638.094.243.118,1.126.294,1.284l.321.784a1.263,1.263,0,0,1,1.062-.247c.239.083,2.1.842,2.231.582a3.352,3.352,0,0,1-1.109-.607c1.077-.968,1.785-1.482,2.777-.085.125.176-.3.808-.177,1.038a12.875,12.875,0,0,0,2.108,2.231c.274-.961-.363-3.368,1.157-3.28,1.214.069,2.138,3.011,1.718,3.926.483-.528,3.365-1.053,3.908-.888,1.538.466,1.107,1.888,3-.2,1.29.891.153,1.228.386,2.313a1.136,1.136,0,0,0,.969-.253c-.228,4.613,3.176,1.088,5.386,1.793.868.277,1.09,1.261,2.021,1.549.493.152,1.041-.208,1.52-.12q.576-.082,1.144-.2.721-.361.676.808c.772.4.48.557,1.383.635.582.051,1.117-.555,1.778-.451,1.14.179.989,1.054,1.718,1.512a3.342,3.342,0,0,0,2.2.319c.411-.041,1.567-.571,1.706-.573.863-.012.395-.2,1.431.546a5.632,5.632,0,0,0,2.135,1.218c1.135.3,3.15.97,3.914.15,1.032,1.547,1.84.411,3.2.514.7.053.808.324,1.428.433a23.43,23.43,0,0,1,3.329.367,9.952,9.952,0,0,0,3.6.887l.932-.364a2.07,2.07,0,0,0,.733,1.27,2.978,2.978,0,0,0,2.391-.817c.592,1.844,2.513,2.005,4.157,2.248a42.413,42.413,0,0,1,7.745,1.477c2.16.736,4.323,1.562,6.4,2.5,1.828.829,3.554,2.07,5.622,1.487,4.687-1.32,9.229-6.131,13.149-8.893,4.644-3.272,9.653-5.968,14.506-8.909,19.319-11.71,39.729-21.616,58.777-33.762,10.4-6.631,20.049-14.51,31.217-19.875-1.59,6.57-4.3,13.239-3.807,20.117.2,2.772,1.013,6.046,3.163,7.981,2.658,2.393,5.618.869,8.16-.84,5.447-3.662,9.079-9.005,13.155-14.023a111.794,111.794,0,0,0,12.1-19.078c.848,1.191.2,3.186.215,4.506a10.639,10.639,0,0,0,1.252,4.812c2.017,3.881,5.854,4.823,9.322,2.163,6.674-5.118,10.547-14.233,14.123-21.573,2.04,3.794,4.935,8.57,9.832,5.86,4.042-2.236,6.416-7.233,7.652-11.465,3.609-12.354,2.466-24.939,3.02-37.6" transform="translate(0 -1.18)" fill="#f9f9f9" fill-rule="evenodd"/>
      <path id="ink-shape-2" data-name="ink-shape" d="M763.115,255.431c-.461-1.12-.663-.937.184-2.022.661.65.132,1.188-.184,2.022m20.426,67.759c-1.3-3.685-.5-7.686-1.283-11.466-.361-1.734-.932-3.416-1.137-5.182-.091-.784-.789-4.31-.314-4.865-1.462-.885-1.467-1.54-1.8-3.276q.781-.829-.2-1.416l-1.28-1.547c1.865.912.762-1.422.571-2.767a16.893,16.893,0,0,0-.606-3.191c-.436-1.253-1.406-1.886.612-1.886a9.182,9.182,0,0,1-1.988-2.459c-.476-1.331.309-3.09-.661-4.265-.541-.656-3.329-.912-2.84-2.329.249-.722,1.379-.183,1.729-.689,1.374-1.987-2.684-2.811-2.883-3.656-.258-1.1,1.208-1.341,1.3-2.366.088-1-1.472-2.651-1.884-3.548-.561.137-1.177,1.025-1.82.6-.122-.08.061-3.552-.085-4.013s-.437-1.655-.542-1.878c-.416-.884-1.607-1.314-1.8-2.357-.113-.623,2.327-1.566-.472-1.6,1.005-1.772-.837-2.848-1.507-4.362-.862-1.947-1.37-4.049-2.255-6.006a29.237,29.237,0,0,0-3.064-5.388,38.308,38.308,0,0,1-2.506-4.6l-.539-.424q-1.123.162-.72-1.023c-.573-.848-1-1.754-1.5-2.639-.587-1.03-1.378-1.869-1.985-2.87-.8-1.327-1.042-2.824-1.952-4.156-1.118-1.638-2.375-3.083-3.412-4.782a26.609,26.609,0,0,0-4.37-5.1c-.778-.785-.871-2.747-1.824-3.861-1.038-1.214-2.062-1.543-2.782-3.137-.936-2.074-2.309-3.064-3.646-4.856-1.1-1.479-1.642-3.178-2.857-4.608-1.045-1.228-2.231-2.351-3.346-3.516-1.408-1.471-2.448-3.259-3.913-4.657.211.2-1.276-.977-1.2-.939-.329-.168-1.391-.3-1.236-.211-2.212-1.3-4.984-6.059-8.313-3.538-1.751,1.326-.911,3.758.312,5.079.525.567,3.253,3.365,3.843,2.185.636.9,2.6,5.261,4.226,4.012-.166,1.49.7,1,1.267,2,.375.665.193.991.465,2.028.752,2.851,3.62,5.636,5.147,8.123,3.8,6.188,8,12.058,11.8,18.253,3.627,5.9,7.688,11.507,11.168,17.491,3.957,6.8,8.888,13.228,11.869,20.563.1.247.929.637,1.134,1.007a15.086,15.086,0,0,1,.512,2.485,26.5,26.5,0,0,0,3.574,7.106c1.3,1.836,1.39,4.331,2.282,6.485,1.258,3.036,2.586,6.039,3.808,9.09a119.7,119.7,0,0,1,4.5,14.257,55.583,55.583,0,0,1,1.8,9.741c.25,3.051.311,6.229,1.44,9.117.77-1.189,1.677-2.729,1.158-4.2" transform="translate(-292.989 -77.19)" fill="#f9f9f9" fill-rule="evenodd"/>
      <path id="ink-shape-3" data-name="ink-shape" d="M91.767,527.433c-1.367-.276-2.653-.645-2.943-2.214l-.595,2.22,4.993,1.131a1.852,1.852,0,0,0-1.456-1.137" transform="translate(-36.295 -216.059)" fill-rule="evenodd"/>
      <path id="ink-shape-4" data-name="ink-shape" d="M95.909,53.824a9.539,9.539,0,0,1,.4-1.3c.112.413.663,1.3.343,1.694-.409.494-.822.214-.746-.394m6.7-12.749c.449.2,1.419.236,1.976.4-1.445,1.243-1.7.877-3.567.733-.083-1.257.428-1.648,1.59-1.136M90.089,72.2l.583.015q.018-.821-.044-1.641c1.97.43.855-3.011.236-3.725,1.921.064,2.857-6.019,3.466-7.191a13.617,13.617,0,0,0,1.548-2.712A23.3,23.3,0,0,1,97.1,53.786c1.145-2.416,2.648-4.61,2.371-7.425.971,2.113,1.824,0,2.44-1.007.992-1.628,3.412-3.7,3.669-5.637.227-1.7-1.037-1.792-.291-3.37.755-1.6,1.375-1.437,2.7-1.948.879-.34,1.054.073,1.675-1.037.4-.719.26-1.254.775-1.844a.9.9,0,0,0,.725.23,4.382,4.382,0,0,0,.822-1.844A15.009,15.009,0,0,1,113,27.278a28.727,28.727,0,0,1,1.809-3.431c.486-.423,3.244-.208,3.232-.192,1.139-1.433-.951-2.86,1.943-2.558-.572-1.064,1.436-2.385,2.019-2.977A5.687,5.687,0,0,0,123.88,14.1c.156-.948-.862-.838.5-1.054.565-.089,1.106.633,1.513.527,1.8-.466-.083-.377.413-1.11.157-.233.957-1.171.949-1.161a3.229,3.229,0,0,1,.361-1.038,5.7,5.7,0,0,0,1.015-.18,10.149,10.149,0,0,0,.448-1.049c1.3-1.085,3.249-1.571,4.149-2.764.582-.771.408-1.526,1.16-2.3.716-.732,1.664-.2,1.806-1.856.181-2.1-2.08-3.041-3-.917-2.508-3.089-12.989,8.243-14.2,9.724A178.315,178.315,0,0,0,104.25,31.043,117.2,117.2,0,0,0,93.9,52.892a84.945,84.945,0,0,0-2.886,11.157c-.267,1.276-2.259,6.96-1.43,8.232l.5-.08" transform="translate(-36.77 0)" fill="#f9f9f9" fill-rule="evenodd"/>
      <path id="ink-shape-5" data-name="ink-shape" d="M793.841,389.206c.886-.591.886-.591,1.041-1.708-1.188.217-1.188.217-1.041,1.708" transform="translate(-326.534 -159.405)" fill-rule="evenodd"/>
      <path id="ink-shape-6" data-name="ink-shape" d="M52.032,517.995a.03.03,0,0,1,.026.008c-.019-.024-.087-.1-.026-.008" transform="translate(-21.394 -213.069)" fill-rule="evenodd"/>
      <path id="ink-shape-7" data-name="ink-shape" d="M50.934,518.625a.857.857,0,0,0,1.32.44c.239.341-2.073-2.13-1.32-.44" transform="translate(-20.89 -213.101)" fill-rule="evenodd"/>
      <path id="ink-shape-8" data-name="ink-shape" d="M118.589,60.346c-1.387,2.72.35.742.261,1.625.058-.58.3-1.407-.261-1.625" transform="translate(-48.562 -24.825)" fill-rule="evenodd"/>
      <path id="ink-shape-9" data-name="ink-shape" d="M502.127,122.778c.6,4.877,7.274,2.571,8.775-.38,1.093-2.148,3.853-10.635.884-12.428-2.2-1.329-2.672,4.4-3.215,5.679-.909,2.143-1.62.625-3.642,1.174-2.232.607-3.05,3.932-2.8,5.955" transform="translate(-206.542 -45.157)" fill="#fff" fill-rule="evenodd"/>
      <path id="ink-shape-10" data-name="ink-shape" d="M488.023,110.082c2.385.53,4.723.257,6.417-1.626.938-1.044,2.187-3.113.5-4.122-1.531-.915-3.267,1.227-4.879.784-2.193-.6-1.064-2.954-1.816-4.507-2.764,1.592-4.306,8.563-.22,9.47" transform="translate(-199.729 -41.389)" fill="#fff" fill-rule="evenodd"/>
      <path id="ink-shape-11" data-name="ink-shape" d="M492.641,137.624c-2.3,0-2.318,2.823-1.118,4.035,1.148,1.16,4.053,2.333,5.61,1.432,3.072-1.78-2.631-5.283-4.492-5.467" transform="translate(-201.873 -56.614)" fill="#fff" fill-rule="evenodd"/>
      <path id="ink-shape-12" data-name="ink-shape" d="M266.344,327.48c.491.238,1.938,1.465,2.548.911l-2.582-2.6c-.476.522-.8,1.284.035,1.69" transform="translate(-109.354 -134.02)" fill-rule="evenodd"/>
      <path id="ink-shape-13" data-name="ink-shape" d="M247.732,117.9l-.733.546c.825.687.8.891,1.635.241a2.921,2.921,0,0,0-.9-.787" transform="translate(-101.608 -48.5)" fill-rule="evenodd"/>
      <path id="ink-shape-14" data-name="ink-shape" d="M503.186,391.454c-.462-.83-1.335.7-1.925.95-.961.4-1.749-1.738-1.473.83-2.171-.994-3.489,1.287-4.89,2.475-1.978,1.679-4.4,2.589-5.718,4.973,6.212,1.453,13.037-3.9,17.669-7.42.756-.575,4.533-3.472,1.973-3.753-1.047-.114-4.859,3.34-5.635,1.945" transform="translate(-201.233 -160.231)" fill-rule="evenodd"/>
      <path id="ink-shape-15" data-name="ink-shape" d="M508.571,383.472c1.217-.958-1.407-1.046-1.822-1.147q.054,1.143.107,2.286.881-.534,1.716-1.14" transform="translate(-208.461 -157.277)" fill-rule="evenodd"/>
      <path id="ink-shape-16" data-name="ink-shape" d="M501.745,388.679c.364-.227,1.378-.937.688-1.465A2.531,2.531,0,0,0,501.266,389l.479-.318" transform="translate(-206.205 -159.288)" fill-rule="evenodd"/>
      <path id="ink-shape-17" data-name="ink-shape" d="M330.429,284.7q-1.166.457-1.044,1.447c1.195-.244.967-1.373,1.044-1.447" transform="translate(-135.494 -117.115)" fill-rule="evenodd"/>
    </g>
  </g>
</svg>
