<svg xmlns="http://www.w3.org/2000/svg" width="57.092" height="57.094" viewBox="0 0 57.092 57.094">
  <g id="layer5" transform="translate(0 0)">
    <path id="rect2201" d="M114.575,108.48h45.271v45.452H114.575Z" transform="translate(-108.683 -102.58)" fill="#ffca84" fill-rule="evenodd"/>
    <path id="rect1917" d="M136.273,108.321h14.24v25.518l-4.469-8.519-9.772,8.519Z" transform="translate(-114.451 -102.537)" fill="#fff" fill-rule="evenodd"/>
    <path id="rect1929" d="M119.37,100.443a12.862,12.862,0,0,0-12.821,12.821v31.453a12.862,12.862,0,0,0,12.821,12.821h31.451a12.862,12.862,0,0,0,12.82-12.821V113.264a12.862,12.862,0,0,0-12.82-12.821Zm1.118,7.807h29.4a6.49,6.49,0,0,1,6.424,6.721v27.917a6.23,6.23,0,0,1-6.424,6.411H120.533a6.359,6.359,0,0,1-6.579-6.411V115.694C113.954,112,116.789,108.25,120.487,108.25Z" transform="translate(-106.549 -100.443)" fill="#a17740" fill-rule="evenodd"/>
  </g>
</svg>
