<svg xmlns="http://www.w3.org/2000/svg" width="171.446" height="171.736" viewBox="0 0 171.446 171.736">
  <g id="StoraygeIcon" transform="translate(-120.419 -134.466)">
    <path id="Path_2296" data-name="Path 2296" d="M291.865,171.125v99.15a36.148,36.148,0,0,1-36.148,36.148h-99.15a36.148,36.148,0,0,1-36.148-36.148v-99.15a36.148,36.148,0,0,1,36.148-36.148h99.15A36.148,36.148,0,0,1,291.865,171.125Z" transform="translate(0 -0.269)" fill="#ffb186"/>
    <path id="Path_2297" data-name="Path 2297" d="M291.865,165.989v86.464c0,17.41-16.184,31.523-36.148,31.523h-99.15c-19.964,0-36.148-14.113-36.148-31.523V165.989c0-17.41,16.184-31.523,36.148-31.523h99.15C275.681,134.466,291.865,148.579,291.865,165.989Z" transform="translate(0)" fill="#ffc286"/>
    <path id="Path_2303" data-name="Path 2303" d="M301.377,236.1v61.445h-4.6V236.1Z" transform="translate(-92.853 -53.508)" fill="#dfa872"/>
    <path id="Path_2298" data-name="Path 2298" d="M299.146,332.967h0V381.4h-35.5V323.209c0-4.8,14.59,6.305,18.475,6.29s17.022-17.882,17.022-6.29Z" transform="translate(-75.41 -97.314)" fill="#ffdab6"/>
    <path id="Path_2299" data-name="Path 2299" d="M298.642,450.319V472.5h-35.5V450.319h35.5Z" transform="translate(-75.145 -166.296)" fill="#ffcc9a"/>
    <path id="Path_2300" data-name="Path 2300" d="M262.938,182.9h0V134.466h35.5v58.193c0,4.8-14.59-6.306-18.475-6.291s-17.022,17.882-17.022,6.291Z" transform="translate(-75.036)" fill="#ffdab6"/>
    <path id="Path_2301" data-name="Path 2301" d="M190.6,417.283h-9.586c-.717,0-1.3-.983-1.3-2.195h0c0-1.213.581-2.2,1.3-2.2H190.6c.717,0,1.3.983,1.3,2.2h0C191.9,416.3,191.317,417.283,190.6,417.283Z" transform="translate(-31.219 -146.591)" fill="#dfa872"/>
    <path id="Path_2302" data-name="Path 2302" d="M164.245,193.139h22.884c1.713,0,3.1,1.1,3.1,2.457h0c0,1.357-1.388,2.457-3.1,2.457H164.245c-1.713,0-3.1-1.1-3.1-2.457h0C161.144,194.239,162.533,193.139,164.245,193.139Z" transform="translate(-21.442 -30.891)" fill="#dfa872"/>
    <path id="Path_2304" data-name="Path 2304" d="M178.957,219.114H164.08a2.457,2.457,0,0,1-2.457-2.457h0a2.457,2.457,0,0,1,2.457-2.457h14.877a2.457,2.457,0,0,1,2.457,2.457h0A2.457,2.457,0,0,1,178.957,219.114Z" transform="translate(-21.694 -41.98)" fill="#dfa872"/>
    <path id="Path_2305" data-name="Path 2305" d="M190.816,360.772c2.659,2.513-10.58,10.051-10.58,10.051s-13.281-7.538-10.636-10.051S188.158,358.26,190.816,360.772Z" transform="translate(-25.711 -118.158)" fill="#dfa872"/>
    <path id="Path_2307" data-name="Path 2307" d="M192.438,376.171v17.873a2.44,2.44,0,0,1-2.457,2.422h0a2.44,2.44,0,0,1-2.457-2.422V376.171a2.44,2.44,0,0,1,2.457-2.422h0A2.44,2.44,0,0,1,192.438,376.171Z" transform="translate(-35.331 -125.982)" fill="#dfa872"/>
  </g>
</svg>
